<?xml version="1.0" encoding="UTF-8"?>
<svg id="Layer_1" xmlns="http://www.w3.org/2000/svg" version="1.1" viewBox="0 0 612 792">
  <!-- Generator: Adobe Illustrator 29.1.0, SVG Export Plug-In . SVG Version: 2.1.0 Build 142)  -->
  <defs>
    <style>
      .st0 {
        fill: #115c39;
      }

      .st1 {
        fill: #fff;
      }

      .st2 {
        fill: none;
        stroke: #115c39;
        stroke-miterlimit: 10;
        stroke-width: 5px;
      }
    </style>
  </defs>
  <g>
    <polygon class="st0" points="338.05 428.8 250.81 428.8 265.47 381.77 271.19 385.38 274.62 382.71 278.38 383.74 293.29 405.57 312.32 390.81 317.92 396 323.63 392.49 327.32 403.03 331.25 400.15 338.05 428.8"/>
    <polygon class="st1" points="331.25 400.15 327.32 403.03 322.94 397.57 306.81 395.08 326.43 379.86 331.25 400.15"/>
    <polygon class="st1" points="278.38 383.74 276.9 383.86 271.19 390.21 263.57 393.51 269.1 370.14 278.38 383.74"/>
  </g>
  <polygon class="st2" points="338.05 428.8 250.81 428.8 269.1 370.14 293.29 405.57 326.43 379.86 338.05 428.8"/>
</svg>