<?xml version="1.0" encoding="UTF-8"?>
<svg id="Layer_1" xmlns="http://www.w3.org/2000/svg" version="1.1" viewBox="0 0 100 100">
  <!-- Generator: Adobe Illustrator 29.1.0, SVG Export Plug-In . SVG Version: 2.1.0 Build 142)  -->
  <defs>
    <style>
      .st0 {
        fill: #115c39;
      }

      .st1 {
        fill: #fff;
      }

      .st2 {
        fill: none;
        stroke: #115c39;
        stroke-miterlimit: 10;
        stroke-width: 5px;
      }
    </style>
  </defs>
  <g>
    <polygon class="st0" points="93.29 81 6.05 81 20.71 33.97 26.43 37.58 29.86 34.91 33.62 35.94 48.53 57.77 67.56 43.01 73.16 48.2 78.87 44.69 82.56 55.23 86.49 52.35 93.29 81"/>
    <polygon class="st1" points="86.49 52.35 82.56 55.23 78.18 49.77 62.05 47.28 81.67 32.06 86.49 52.35"/>
    <polygon class="st1" points="33.62 35.94 32.14 36.05 26.43 42.4 18.81 45.71 24.34 22.34 33.62 35.94"/>
  </g>
  <polygon class="st2" points="93.29 81 6.05 81 24.33 22.34 48.52 57.77 81.67 32.05 93.29 81"/>
</svg>